<svg width="12" height="10" viewBox="0 0 12 10" fill="none" xmlns="http://www.w3.org/2000/svg">
<path d="M11.6451 5.09037L7.56179 9.1737C7.47662 9.25887 7.3646 9.30202 7.2526 9.30202C7.1406 9.30202 7.02859 9.25945 6.94342 9.1737C6.7725 9.00278 6.7725 8.72568 6.94342 8.55476L10.2801 5.21811H0.835938C0.594437 5.21811 0.398438 5.02211 0.398438 4.78061C0.398438 4.53911 0.594437 4.34311 0.835938 4.34311H10.2795L6.94285 1.00643C6.77193 0.835511 6.77193 0.558443 6.94285 0.387526C7.11377 0.216609 7.39087 0.216609 7.56179 0.387526L11.6451 4.47086C11.816 4.64294 11.816 4.91945 11.6451 5.09037Z" fill="#2E2E2E"/>
</svg>
