<svg width="16" height="17" viewBox="0 0 16 17" fill="none" xmlns="http://www.w3.org/2000/svg">
<path d="M3.1665 11.5915L4.9973 9.26262C5.51644 8.60224 6.50952 8.58063 7.05689 9.21781L8.6665 11.0915M7.27653 9.47348C7.96797 8.59393 8.9314 7.34786 8.99407 7.26678L9.00073 7.25827C9.5208 6.60214 10.5107 6.58203 11.0569 7.21781L12.6665 9.09149M4.49984 4.09149H11.4998C12.2362 4.09149 12.8332 4.68845 12.8332 5.42482V12.4248C12.8332 13.1612 12.2362 13.7582 11.4998 13.7582H4.49984C3.76346 13.7582 3.1665 13.1612 3.1665 12.4248V5.42483C3.1665 4.68845 3.76346 4.09149 4.49984 4.09149Z" stroke="#667085" stroke-width="1.5" stroke-linecap="round" stroke-linejoin="round"/>
</svg>
