<svg width="16" height="17" viewBox="0 0 16 17" fill="none" xmlns="http://www.w3.org/2000/svg">
<path d="M3.1665 5.09149L4.1665 4.09149V7.75816M4.1665 7.75816H3.1665M4.1665 7.75816H4.83317M8.83316 10.4248H7.77066C7.2835 10.4248 7.01198 9.88208 7.27036 9.4964C7.30219 9.44889 7.34725 9.41224 7.39487 9.38055L8.59477 8.58213C8.64239 8.55044 8.6873 8.51364 8.7198 8.46658C9.01673 8.03671 8.71403 7.42482 8.16822 7.42482H7.1665M11.1665 10.7582H12.1308C12.9537 10.7582 13.0997 12.0165 12.3399 12.2286C12.3031 12.2389 12.2645 12.243 12.2263 12.2443L11.8332 12.2582L12.2263 12.272C12.2645 12.2734 12.3031 12.2775 12.3399 12.2877C13.0997 12.4998 12.9537 13.7582 12.1308 13.7582H11.1665" stroke="#667085" stroke-width="1.5" stroke-linecap="round" stroke-linejoin="round"/>
</svg>
