<svg width="16" height="17" viewBox="0 0 16 17" fill="none" xmlns="http://www.w3.org/2000/svg">
<path d="M6.49984 4.92483H12.1665M6.49984 8.92482H12.1665M6.49984 12.9248H12.1665M4.33317 4.92483C4.33317 5.10892 4.18393 5.25816 3.99984 5.25816C3.81574 5.25816 3.6665 5.10892 3.6665 4.92483C3.6665 4.74073 3.81574 4.59149 3.99984 4.59149C4.18393 4.59149 4.33317 4.74073 4.33317 4.92483ZM4.33317 8.92482C4.33317 9.10892 4.18393 9.25816 3.99984 9.25816C3.81574 9.25816 3.6665 9.10892 3.6665 8.92482C3.6665 8.74073 3.81574 8.59149 3.99984 8.59149C4.18393 8.59149 4.33317 8.74073 4.33317 8.92482ZM4.33317 12.9248C4.33317 13.1089 4.18393 13.2582 3.99984 13.2582C3.81574 13.2582 3.6665 13.1089 3.6665 12.9248C3.6665 12.7407 3.81574 12.5915 3.99984 12.5915C4.18393 12.5915 4.33317 12.7407 4.33317 12.9248Z" stroke="#667085" stroke-width="1.5" stroke-linecap="round" stroke-linejoin="round"/>
</svg>
